<svg xmlns="http://www.w3.org/2000/svg" xmlns:xlink="http://www.w3.org/1999/xlink" width="765" height="1020">
<defs>
<mask id="m1">
	<rect x="0" y="0" width="100%" height="100%" fill="#aaa" fill-opacity="70%" />
	<g fill="white">
		<circle cx="463" cy="744" r="30"/>
		<path d="M366,924 C371,951 480,971 490,948 499,924 463,872 439,869 415,866 362,896 366,924 Z"/>
		<circle cx="599" cy="633" r="30"/>
		<circle cx="555" cy="459" r="25"/>
		<circle cx="541" cy="407" r="25"/>
		<circle cx="465" cy="269" r="25"/>
		<circle cx="413" cy="63" r="35"/>
	</g>
</mask>
</defs>

<rect x="0" y="0" width="100%" height="100%" fill="black"/>
<image x="0" y="0" id="photo" width="100%" height="100%" mask="url(#m1)"
	xlink:href="neben_garage.jpg" />

<g fill="none" stroke="orange" stroke-width="2">
	<circle cx="463" cy="744" r="30"/>
	<path d="M366,924 C371,951 480,971 490,948 499,924 463,872 439,869 415,866 362,896 366,924 Z"/>
	<circle cx="599" cy="633" r="30"/>
	<circle cx="555" cy="459" r="25"/>
	<circle cx="541" cy="407" r="25"/>
	<circle cx="465" cy="269" r="25"/>
	<circle cx="413" cy="63" r="35"/>
</g>
<g>
	<text x="455" y="792" fill="black" stroke="black" stroke-width="3.5">Start</text>
	<text x="455" y="792" fill="green" stroke="green" stroke-width="1">Start</text>
</g>
<g>
	<text x="454" y="46" fill="black" stroke="black" stroke-width="3.5">Top</text>
	<text x="454" y="46" fill="green" stroke="green" stroke-width="1">Top</text>
</g>
</svg>
