<svg xmlns="http://www.w3.org/2000/svg" xmlns:xlink="http://www.w3.org/1999/xlink" width="765" height="1020">
<defs>
<mask id="m1">
	<rect x="0" y="0" width="100%" height="100%" fill="#aaa" fill-opacity="70%" />
	<g fill="white">
		<circle cx="465" cy="746" r="30"/>
		<path d="M366,924 C371,951 480,971 490,948 499,924 463,872 439,869 415,866 362,896 366,924 Z"/>
		<circle cx="599" cy="635" r="30"/>
		<path d="M415,471 C417,492 453,527 473,529 493,531 534,469 532,444 530,420 485,389 466,391 447,394 414,451 415,471 Z"/>
		<circle cx="539" cy="375" r="15"/>
		<circle cx="461" cy="267" r="20"/>
		<circle cx="413" cy="63" r="35"/>
	</g>
</mask>
</defs>

<rect x="0" y="0" width="100%" height="100%" fill="black"/>
<image x="0" y="0" id="photo" width="100%" height="100%" mask="url(#m1)"
	xlink:href="neben_garage.jpg" />

<g fill="none" stroke="orange" stroke-width="2">
	<circle cx="465" cy="746" r="30"/>
	<path d="M366,924 C371,951 480,971 490,948 499,924 463,872 439,869 415,866 362,896 366,924 Z"/>
	<circle cx="599" cy="635" r="30"/>
	<path d="M415,471 C417,492 453,527 473,529 493,531 534,469 532,444 530,420 485,389 466,391 447,394 414,451 415,471 Z"/>
	<circle cx="539" cy="375" r="15"/>
	<circle cx="461" cy="267" r="20"/>
	<circle cx="413" cy="63" r="35"/>
</g>
<g>
	<text x="456" y="42" fill="black" stroke="black" stroke-width="3.5">Top</text>
	<text x="456" y="42" fill="green" stroke="green" stroke-width="1">Top</text>
</g>
<g>
	<text x="459" y="795" fill="black" stroke="black" stroke-width="3.5">Start</text>
	<text x="459" y="795" fill="green" stroke="green" stroke-width="1">Start</text>
</g>
</svg>
