<svg xmlns="http://www.w3.org/2000/svg" xmlns:xlink="http://www.w3.org/1999/xlink" width="765" height="1020">
<defs>
<mask id="m1">
	<rect x="0" y="0" width="100%" height="100%" fill="#aaa" fill-opacity="70%" />
	<g fill="white">
		<circle cx="113" cy="731" r="20"/>
		<circle cx="133" cy="741" r="20"/>
		<circle cx="187" cy="701" r="20"/>
		<circle cx="57" cy="540" r="20"/>
		<circle cx="258" cy="472" r="30"/>
		<circle cx="507" cy="605" r="30"/>
		<circle cx="318" cy="268" r="20"/>
		<circle cx="459" cy="265" r="20"/>
		<path d="M512,234 C487,256 522,345 550,362 577,379 605,355 609,330 613,306 601,258 586,245 572,232 538,212 512,234 Z"/>
		<circle cx="413" cy="63" r="35"/>
	</g>
</mask>
</defs>

<rect x="0" y="0" width="100%" height="100%" fill="black"/>
<image x="0" y="0" id="photo" width="100%" height="100%" mask="url(#m1)"
	xlink:href="neben_garage.jpg" />

<g fill="none" stroke="orange" stroke-width="2">
	<circle cx="113" cy="731" r="20"/>
	<circle cx="133" cy="741" r="20"/>
	<circle cx="187" cy="701" r="20"/>
	<circle cx="57" cy="540" r="20"/>
	<circle cx="258" cy="472" r="30"/>
	<circle cx="507" cy="605" r="30"/>
	<circle cx="318" cy="268" r="20"/>
	<circle cx="459" cy="265" r="20"/>
	<path d="M512,234 C487,256 522,345 550,362 577,379 605,355 609,330 613,306 601,258 586,245 572,232 538,212 512,234 Z"/>
	<circle cx="413" cy="63" r="35"/>
</g>
<g>
	<text x="450" y="46" fill="black" stroke="black" stroke-width="3.5">Top</text>
	<text x="450" y="46" fill="green" stroke="green" stroke-width="1">Top</text>
</g>
<g>
	<text x="10" y="780" fill="black" stroke="black" stroke-width="3.5">Start on white jugs</text>
	<text x="10" y="780" fill="white" stroke="white" stroke-width="1">Start on white jugs</text>
	<text x="30" y="800" fill="black" stroke="black" stroke-width="3.5">around corner</text>
	<text x="30" y="800" fill="white" stroke="white" stroke-width="1">around corner</text>
</g>
</svg>
