<svg xmlns="http://www.w3.org/2000/svg" xmlns:xlink="http://www.w3.org/1999/xlink" width="765" height="1020">
<defs>
<mask id="m1">
	<rect x="0" y="0" width="100%" height="100%" fill="#aaa" fill-opacity="70%" />
	<g fill="white">
		<path d="M611,522 C593,538 639,623 656,621 673,619 676,580 668,556 660,532 628,505 611,522 Z"/>
		<circle cx="649" cy="763" r="20"/>
		<path d="M415,471 C417,492 453,527 473,529 493,531 534,469 532,444 530,420 485,389 466,391 447,394 414,451 415,471 Z"/>
		<circle cx="460" cy="268" r="20"/>
		<circle cx="316" cy="265" r="20"/>
		<circle cx="372" cy="102" r="30"/>
	</g>
</mask>
</defs>

<rect x="0" y="0" width="100%" height="100%" fill="black"/>
<image x="0" y="0" id="photo" width="100%" height="100%" mask="url(#m1)"
	xlink:href="neben_garage.jpg" />

<g fill="none" stroke="orange" stroke-width="2">
	<path d="M611,522 C593,538 639,623 656,621 673,619 676,580 668,556 660,532 628,505 611,522 Z"/>
	<circle cx="649" cy="763" r="20"/>
	<path d="M415,471 C417,492 453,527 473,529 493,531 534,469 532,444 530,420 485,389 466,391 447,394 414,451 415,471 Z"/>
	<circle cx="460" cy="268" r="20"/>
	<circle cx="316" cy="265" r="20"/>
	<circle cx="372" cy="102" r="30"/>
</g>

<g>
	<text x="340" y="60" fill="black" stroke="black" stroke-width="3.5">Top</text>
	<text x="340" y="60" fill="green" stroke="green" stroke-width="1">Top</text>
</g>
<g>
	<text x="673" y="555" fill="black" stroke="black" stroke-width="3.5">Start</text>
	<text x="673" y="555" fill="green" stroke="green" stroke-width="1">Start</text>
</g>
</svg>
